<svg width="128" height="128" viewBox="0 0 128 128" fill="none" xmlns="http://www.w3.org/2000/svg">
<path d="M17.0363 67L14.5443 50.816H17.7083L19.1363 61.316L20.8163 50.816H23.6443L25.2403 61.428L26.7803 50.816H29.7763L27.2283 67H24.0083L22.2163 56.78L20.3403 67H17.0363ZM31.702 67V44.32H35.51V52.356C36.07 51.796 36.6767 51.3573 37.33 51.04C38.002 50.7227 38.73 50.564 39.514 50.564C40.1673 50.564 40.69 50.732 41.082 51.068C41.474 51.3853 41.7633 51.8147 41.95 52.356C42.1367 52.8973 42.23 53.4853 42.23 54.12V67H38.422V54.876C38.422 54.3907 38.3473 54.0173 38.198 53.756C38.0487 53.4947 37.7593 53.364 37.33 53.364C37.0687 53.364 36.77 53.4387 36.434 53.588C36.1167 53.7373 35.8087 53.9333 35.51 54.176V67H31.702ZM49.6371 67.252C48.4237 67.252 47.4344 67.028 46.6691 66.58C45.9037 66.1133 45.3344 65.4413 44.9611 64.564C44.6064 63.668 44.4291 62.5947 44.4291 61.344V56.472C44.4291 55.184 44.6064 54.1013 44.9611 53.224C45.3344 52.3467 45.9037 51.684 46.6691 51.236C47.4531 50.788 48.4424 50.564 49.6371 50.564C50.9251 50.564 51.9237 50.8067 52.6331 51.292C53.3611 51.7773 53.8744 52.4867 54.1731 53.42C54.4904 54.3347 54.6491 55.4547 54.6491 56.78V59.076H48.2091V62.268C48.2091 62.7907 48.2557 63.22 48.3491 63.556C48.4611 63.892 48.6291 64.1347 48.8531 64.284C49.0771 64.4333 49.3477 64.508 49.6651 64.508C50.0011 64.508 50.2717 64.4333 50.4771 64.284C50.6824 64.116 50.8317 63.8827 50.9251 63.584C51.0184 63.2667 51.0651 62.8747 51.0651 62.408V61.064H54.6211V62.156C54.6211 63.7987 54.2104 65.0587 53.3891 65.936C52.5677 66.8133 51.3171 67.252 49.6371 67.252ZM48.2091 57.2H51.0651V55.66C51.0651 55.1 51.0184 54.652 50.9251 54.316C50.8317 53.9613 50.6824 53.7093 50.4771 53.56C50.2717 53.392 49.9824 53.308 49.6091 53.308C49.2731 53.308 49.0024 53.392 48.7971 53.56C48.5917 53.728 48.4424 54.008 48.3491 54.4C48.2557 54.792 48.2091 55.352 48.2091 56.08V57.2ZM57.0372 67V50.816H60.8452V53.308C61.4052 52.356 61.9652 51.6747 62.5252 51.264C63.0852 50.8347 63.7012 50.62 64.3732 50.62C64.4852 50.62 64.5785 50.6293 64.6532 50.648C64.7465 50.648 64.8492 50.6573 64.9612 50.676V54.624C64.7372 54.5307 64.4852 54.456 64.2052 54.4C63.9438 54.3253 63.6732 54.288 63.3932 54.288C62.8892 54.288 62.4318 54.4093 62.0212 54.652C61.6105 54.8947 61.2185 55.296 60.8452 55.856V67H57.0372ZM71.4443 67.252C70.2309 67.252 69.2416 67.028 68.4763 66.58C67.7109 66.1133 67.1416 65.4413 66.7683 64.564C66.4136 63.668 66.2363 62.5947 66.2363 61.344V56.472C66.2363 55.184 66.4136 54.1013 66.7683 53.224C67.1416 52.3467 67.7109 51.684 68.4763 51.236C69.2603 50.788 70.2496 50.564 71.4443 50.564C72.7323 50.564 73.7309 50.8067 74.4403 51.292C75.1683 51.7773 75.6816 52.4867 75.9803 53.42C76.2976 54.3347 76.4563 55.4547 76.4563 56.78V59.076H70.0163V62.268C70.0163 62.7907 70.0629 63.22 70.1563 63.556C70.2683 63.892 70.4363 64.1347 70.6603 64.284C70.8843 64.4333 71.1549 64.508 71.4723 64.508C71.8083 64.508 72.0789 64.4333 72.2843 64.284C72.4896 64.116 72.6389 63.8827 72.7323 63.584C72.8256 63.2667 72.8723 62.8747 72.8723 62.408V61.064H76.4283V62.156C76.4283 63.7987 76.0176 65.0587 75.1963 65.936C74.3749 66.8133 73.1243 67.252 71.4443 67.252ZM70.0163 57.2H72.8723V55.66C72.8723 55.1 72.8256 54.652 72.7323 54.316C72.6389 53.9613 72.4896 53.7093 72.2843 53.56C72.0789 53.392 71.7896 53.308 71.4163 53.308C71.0803 53.308 70.8096 53.392 70.6043 53.56C70.3989 53.728 70.2496 54.008 70.1563 54.4C70.0629 54.792 70.0163 55.352 70.0163 56.08V57.2ZM78.8724 67V50.816H82.6804V67H78.8724ZM78.8724 48.24V45.076H82.6804V48.24H78.8724ZM89.8217 67.252C88.459 67.252 87.339 66.888 86.4617 66.16C85.5843 65.432 84.959 64.368 84.5857 62.968L87.4137 61.876C87.6377 62.7533 87.9363 63.4253 88.3097 63.892C88.683 64.3587 89.1683 64.592 89.7657 64.592C90.2137 64.592 90.5497 64.48 90.7737 64.256C90.9977 64.032 91.1097 63.724 91.1097 63.332C91.1097 62.884 90.9697 62.4827 90.6897 62.128C90.4283 61.7547 89.971 61.2973 89.3177 60.756L87.3577 59.104C86.6483 58.488 86.0697 57.8627 85.6217 57.228C85.1923 56.5747 84.9777 55.7627 84.9777 54.792C84.9777 53.9147 85.1737 53.168 85.5657 52.552C85.9763 51.9173 86.527 51.432 87.2177 51.096C87.927 50.7413 88.711 50.564 89.5697 50.564C90.8763 50.564 91.9217 50.956 92.7057 51.74C93.5083 52.5053 94.0217 53.5133 94.2457 54.764L91.7537 55.828C91.6603 55.38 91.5203 54.9693 91.3337 54.596C91.1657 54.204 90.9417 53.8867 90.6617 53.644C90.3817 53.4013 90.055 53.28 89.6817 53.28C89.2897 53.28 88.9723 53.4013 88.7297 53.644C88.5057 53.8867 88.3937 54.1947 88.3937 54.568C88.3937 54.8853 88.5243 55.212 88.7857 55.548C89.0657 55.884 89.4577 56.2667 89.9617 56.696L91.9497 58.488C92.379 58.8613 92.7897 59.2627 93.1817 59.692C93.5737 60.1213 93.9003 60.6067 94.1617 61.148C94.423 61.6707 94.5537 62.2773 94.5537 62.968C94.5537 63.9013 94.339 64.6853 93.9097 65.32C93.499 65.9547 92.9297 66.44 92.2017 66.776C91.4923 67.0933 90.699 67.252 89.8217 67.252Z" fill="#0D47A1"/>
<path d="M30.3346 85.3824V69.1984H34.0026V70.5984C34.5626 70.0011 35.1693 69.5718 35.8226 69.3104C36.4759 69.0304 37.1386 68.8904 37.8106 68.8904C38.4453 68.8904 38.9959 69.0491 39.4626 69.3664C39.9479 69.6838 40.3026 70.1878 40.5266 70.8784C41.1426 70.1691 41.7959 69.6651 42.4866 69.3664C43.1773 69.0491 43.8866 68.8904 44.6146 68.8904C45.1933 68.8904 45.7066 69.0398 46.1546 69.3384C46.6026 69.6184 46.9573 70.0478 47.2186 70.6264C47.4799 71.1864 47.6106 71.8958 47.6106 72.7544V85.3824H43.9706V73.0904C43.9706 72.4744 43.8679 72.0544 43.6626 71.8304C43.4573 71.5878 43.1679 71.4664 42.7946 71.4664C42.4959 71.4664 42.1599 71.5504 41.7866 71.7184C41.4319 71.8864 41.1053 72.1198 40.8066 72.4184C40.8066 72.4744 40.8066 72.5304 40.8066 72.5864C40.8066 72.6238 40.8066 72.6798 40.8066 72.7544V85.3824H37.1946V73.0904C37.1946 72.4744 37.0826 72.0544 36.8586 71.8304C36.6533 71.5878 36.3639 71.4664 35.9906 71.4664C35.6919 71.4664 35.3653 71.5504 35.0106 71.7184C34.6559 71.8864 34.3199 72.1198 34.0026 72.4184V85.3824H30.3346ZM50.2643 89.7784V87.0344C50.9176 87.0344 51.4496 86.9971 51.8603 86.9224C52.2709 86.8478 52.5696 86.7171 52.7563 86.5304C52.9429 86.3438 53.0363 86.0824 53.0363 85.7464C53.0363 85.5038 52.9709 85.1211 52.8403 84.5984C52.7283 84.0758 52.5976 83.5064 52.4483 82.8904L48.8923 69.1984H52.5883L54.6883 79.8664L56.5083 69.1984H60.1763L56.3963 86.0264C56.1909 86.9784 55.8456 87.7251 55.3603 88.2664C54.8749 88.8078 54.2683 89.1904 53.5403 89.4144C52.8123 89.6571 51.9629 89.7784 50.9923 89.7784H50.2643ZM61.7134 85.3824V62.7024H65.5214V70.7384C66.0814 70.1784 66.6881 69.7398 67.3414 69.4224C68.0134 69.1051 68.7414 68.9464 69.5254 68.9464C70.1788 68.9464 70.7014 69.1144 71.0934 69.4504C71.4854 69.7678 71.7748 70.1971 71.9614 70.7384C72.1481 71.2798 72.2414 71.8678 72.2414 72.5024V85.3824H68.4334V73.2584C68.4334 72.7731 68.3588 72.3998 68.2094 72.1384C68.0601 71.8771 67.7708 71.7464 67.3414 71.7464C67.0801 71.7464 66.7814 71.8211 66.4454 71.9704C66.1281 72.1198 65.8201 72.3158 65.5214 72.5584V85.3824H61.7134ZM79.6485 85.6344C78.4725 85.6344 77.5018 85.4198 76.7365 84.9904C75.9712 84.5424 75.3925 83.8984 75.0005 83.0584C74.6272 82.2184 74.4405 81.2011 74.4405 80.0064V74.5744C74.4405 73.3798 74.6272 72.3624 75.0005 71.5224C75.3925 70.6824 75.9712 70.0478 76.7365 69.6184C77.5018 69.1704 78.4725 68.9464 79.6485 68.9464C80.8245 68.9464 81.7952 69.1704 82.5605 69.6184C83.3445 70.0478 83.9232 70.6824 84.2965 71.5224C84.6885 72.3624 84.8845 73.3798 84.8845 74.5744V80.0064C84.8845 81.2011 84.6885 82.2184 84.2965 83.0584C83.9232 83.8984 83.3445 84.5424 82.5605 84.9904C81.7952 85.4198 80.8245 85.6344 79.6485 85.6344ZM79.6765 83.0024C80.1058 83.0024 80.4232 82.8811 80.6285 82.6384C80.8338 82.3958 80.9645 82.0691 81.0205 81.6584C81.0765 81.2291 81.1045 80.7624 81.1045 80.2584V74.3224C81.1045 73.8184 81.0765 73.3611 81.0205 72.9504C80.9645 72.5398 80.8338 72.2131 80.6285 71.9704C80.4232 71.7091 80.1058 71.5784 79.6765 71.5784C79.2472 71.5784 78.9298 71.7091 78.7245 71.9704C78.5192 72.2131 78.3792 72.5398 78.3045 72.9504C78.2485 73.3611 78.2205 73.8184 78.2205 74.3224V80.2584C78.2205 80.7624 78.2485 81.2291 78.3045 81.6584C78.3792 82.0691 78.5192 82.3958 78.7245 82.6384C78.9298 82.8811 79.2472 83.0024 79.6765 83.0024ZM87.2107 85.3824V69.1984H90.8787V70.5984C91.4387 70.0011 92.0454 69.5718 92.6987 69.3104C93.352 69.0304 94.0147 68.8904 94.6867 68.8904C95.3214 68.8904 95.872 69.0491 96.3387 69.3664C96.824 69.6838 97.1787 70.1878 97.4027 70.8784C98.0187 70.1691 98.672 69.6651 99.3627 69.3664C100.053 69.0491 100.763 68.8904 101.491 68.8904C102.069 68.8904 102.583 69.0398 103.031 69.3384C103.479 69.6184 103.833 70.0478 104.095 70.6264C104.356 71.1864 104.487 71.8958 104.487 72.7544V85.3824H100.847V73.0904C100.847 72.4744 100.744 72.0544 100.539 71.8304C100.333 71.5878 100.044 71.4664 99.6707 71.4664C99.372 71.4664 99.036 71.5504 98.6627 71.7184C98.308 71.8864 97.9814 72.1198 97.6827 72.4184C97.6827 72.4744 97.6827 72.5304 97.6827 72.5864C97.6827 72.6238 97.6827 72.6798 97.6827 72.7544V85.3824H94.0707V73.0904C94.0707 72.4744 93.9587 72.0544 93.7347 71.8304C93.5294 71.5878 93.24 71.4664 92.8667 71.4664C92.568 71.4664 92.2414 71.5504 91.8867 71.7184C91.532 71.8864 91.196 72.1198 90.8787 72.4184V85.3824H87.2107ZM111.928 85.6344C110.715 85.6344 109.726 85.4104 108.96 84.9624C108.195 84.4958 107.626 83.8238 107.252 82.9464C106.898 82.0504 106.72 80.9771 106.72 79.7264V74.8544C106.72 73.5664 106.898 72.4838 107.252 71.6064C107.626 70.7291 108.195 70.0664 108.96 69.6184C109.744 69.1704 110.734 68.9464 111.928 68.9464C113.216 68.9464 114.215 69.1891 114.924 69.6744C115.652 70.1598 116.166 70.8691 116.464 71.8024C116.782 72.7171 116.94 73.8371 116.94 75.1624V77.4584H110.5V80.6504C110.5 81.1731 110.547 81.6024 110.64 81.9384C110.752 82.2744 110.92 82.5171 111.144 82.6664C111.368 82.8158 111.639 82.8904 111.956 82.8904C112.292 82.8904 112.563 82.8158 112.768 82.6664C112.974 82.4984 113.123 82.2651 113.216 81.9664C113.31 81.6491 113.356 81.2571 113.356 80.7904V79.4464H116.912V80.5384C116.912 82.1811 116.502 83.4411 115.68 84.3184C114.859 85.1958 113.608 85.6344 111.928 85.6344ZM110.5 75.5824H113.356V74.0424C113.356 73.4824 113.31 73.0344 113.216 72.6984C113.123 72.3438 112.974 72.0918 112.768 71.9424C112.563 71.7744 112.274 71.6904 111.9 71.6904C111.564 71.6904 111.294 71.7744 111.088 71.9424C110.883 72.1104 110.734 72.3904 110.64 72.7824C110.547 73.1744 110.5 73.7344 110.5 74.4624V75.5824Z" fill="#0D47A1"/>
</svg>
