<svg width="143" height="195" viewBox="0 0 143 195" fill="none" xmlns="http://www.w3.org/2000/svg">
<g filter="url(#filter0_d_78_472)">
<path d="M57.3684 115.563L73.8532 125.08L40.3779 183.061L30.7697 161.633L57.3684 115.563Z" fill="#CE4444"/>
<path d="M57.3684 115.563L40.8836 106.045L7.40827 164.026L30.7697 161.633L57.3684 115.563Z" fill="#983535"/>
<path d="M80.8864 115.563L64.4016 125.08L97.8769 183.061L107.485 161.633L80.8864 115.563Z" fill="#983535"/>
<path d="M80.8864 115.563L97.3711 106.045L130.846 164.026L107.485 161.633L80.8864 115.563Z" fill="#CE4444"/>
<circle cx="68.6218" cy="75.6406" r="57.2539" fill="url(#paint0_linear_78_472)" stroke="#765C00"/>
<circle cx="68.6218" cy="75.6409" r="44.3016" fill="#A88300"/>
<mask id="mask0_78_472" style="mask-type:alpha" maskUnits="userSpaceOnUse" x="26" y="35" width="90" height="90">
<circle cx="70.9866" cy="80.3705" r="44.4047" fill="#C28B37"/>
</mask>
<g mask="url(#mask0_78_472)">
<circle cx="68.6218" cy="75.641" r="44.4047" fill="#C09525"/>
</g>
<path d="M68.8613 44.7495L78.44 63.9069L97.5974 66.3016L84.4427 81.0529L88.0187 102.222L68.8613 92.6431L49.7038 102.222L53.3118 81.0529L40.1251 66.3016L59.2826 63.9069L68.8613 44.7495Z" fill="url(#paint1_linear_78_472)"/>
<path d="M13.7454 41.2361L19.9909 27.4907L13.7454 13.7454L27.4907 19.9909L41.2361 13.7454L34.9905 27.4907L41.2361 41.2361L27.4907 34.9905L13.7454 41.2361Z" fill="url(#paint2_angular_78_472)"/>
</g>
<defs>
<filter id="filter0_d_78_472" x="6.62483" y="12.9621" width="135.974" height="181.852" filterUnits="userSpaceOnUse" color-interpolation-filters="sRGB">
<feFlood flood-opacity="0" result="BackgroundImageFix"/>
<feColorMatrix in="SourceAlpha" type="matrix" values="0 0 0 0 0 0 0 0 0 0 0 0 0 0 0 0 0 0 127 0" result="hardAlpha"/>
<feOffset dx="5.48449" dy="5.48449"/>
<feGaussianBlur stdDeviation="3.13399"/>
<feComposite in2="hardAlpha" operator="out"/>
<feColorMatrix type="matrix" values="0 0 0 0 0 0 0 0 0 0 0 0 0 0 0 0 0 0 0.3 0"/>
<feBlend mode="normal" in2="BackgroundImageFix" result="effect1_dropShadow_78_472"/>
<feBlend mode="normal" in="SourceGraphic" in2="effect1_dropShadow_78_472" result="shape"/>
</filter>
<linearGradient id="paint0_linear_78_472" x1="68.6218" y1="18.8867" x2="68.6218" y2="132.395" gradientUnits="userSpaceOnUse">
<stop stop-color="#FFC600"/>
<stop offset="1" stop-color="#FFDE69"/>
</linearGradient>
<linearGradient id="paint1_linear_78_472" x1="68.8613" y1="44.7495" x2="68.8613" y2="102.222" gradientUnits="userSpaceOnUse">
<stop stop-color="#FFFCDD"/>
<stop offset="1" stop-color="#FFE896"/>
</linearGradient>
<radialGradient id="paint2_angular_78_472" cx="0" cy="0" r="1" gradientUnits="userSpaceOnUse" gradientTransform="translate(27.4907 27.4907) rotate(135) scale(19.4389)">
<stop stop-color="white"/>
<stop offset="0.34375" stop-color="#EEEEEE" stop-opacity="0.65625"/>
<stop offset="0.666667" stop-color="#EEEEEE" stop-opacity="0"/>
<stop offset="1" stop-color="white" stop-opacity="0"/>
</radialGradient>
</defs>
</svg>
