<svg width="60" height="63" viewBox="0 0 60 63" fill="none" xmlns="http://www.w3.org/2000/svg">
<g filter="url(#filter0_d_35_497)">
<path d="M19.3 41.14L23.7025 39.87L50.21 13.045C50.4191 12.8307 50.5355 12.5428 50.5341 12.2434C50.5327 11.9441 50.4136 11.6573 50.2025 11.445L48.615 9.83998C48.5124 9.73457 48.3899 9.65066 48.2545 9.59313C48.1191 9.5356 47.9737 9.50561 47.8266 9.50491C47.6795 9.50421 47.5337 9.53282 47.3978 9.58906C47.2619 9.6453 47.1386 9.72805 47.035 9.83248L20.5975 36.5875L19.2975 41.1375L19.3 41.14ZM51.7575 6.65998L53.345 8.26748C55.535 10.485 55.555 14.0625 53.385 16.2575L26.07 43.9025L16.66 46.6125C16.0855 46.7733 15.4707 46.6996 14.9504 46.4076C14.4302 46.1156 14.047 45.6292 13.885 45.055C13.7645 44.6422 13.7627 44.2037 13.88 43.79L16.6175 34.19L43.86 6.61748C44.378 6.09588 44.9947 5.68264 45.6741 5.40186C46.3535 5.12109 47.082 4.9784 47.8171 4.98213C48.5523 4.98585 49.2793 5.13591 49.9558 5.42355C50.6323 5.71119 51.2448 6.13066 51.7575 6.65748V6.65998ZM22.96 9.54248C24.2 9.54248 25.205 10.56 25.205 11.815C25.207 12.1117 25.1505 12.4058 25.0387 12.6806C24.9269 12.9554 24.762 13.2055 24.5535 13.4166C24.345 13.6276 24.097 13.7955 23.8235 13.9106C23.5501 14.0257 23.2567 14.0858 22.96 14.0875H13.98C11.5 14.0875 9.49 16.1225 9.49 18.63V45.895C9.49 48.405 11.5 50.44 13.98 50.44H40.92C43.4 50.44 45.4125 48.405 45.4125 45.895V36.8075C45.4125 35.5525 46.4175 34.535 47.6575 34.535C48.8975 34.535 49.9025 35.5525 49.9025 36.81V45.895C49.9025 50.915 45.88 54.985 40.92 54.985H13.98C9.02 54.985 5 50.915 5 45.895V18.63C5 13.6125 9.02 9.54248 13.98 9.54248H22.96V9.54248Z" fill="#0D47A1"/>
</g>
<defs>
<filter id="filter0_d_35_497" x="-4" y="0" width="68" height="68" filterUnits="userSpaceOnUse" color-interpolation-filters="sRGB">
<feFlood flood-opacity="0" result="BackgroundImageFix"/>
<feColorMatrix in="SourceAlpha" type="matrix" values="0 0 0 0 0 0 0 0 0 0 0 0 0 0 0 0 0 0 127 0" result="hardAlpha"/>
<feOffset dy="4"/>
<feGaussianBlur stdDeviation="2"/>
<feComposite in2="hardAlpha" operator="out"/>
<feColorMatrix type="matrix" values="0 0 0 0 0 0 0 0 0 0 0 0 0 0 0 0 0 0 0.25 0"/>
<feBlend mode="normal" in2="BackgroundImageFix" result="effect1_dropShadow_35_497"/>
<feBlend mode="normal" in="SourceGraphic" in2="effect1_dropShadow_35_497" result="shape"/>
</filter>
</defs>
</svg>
