<svg width="105" height="47" viewBox="0 0 105 47" fill="none" xmlns="http://www.w3.org/2000/svg">
<path d="M3.164 23L0.672 6.816H3.836L5.264 17.316L6.944 6.816H9.772L11.368 17.428L12.908 6.816H15.904L13.356 23H10.136L8.344 12.78L6.468 23H3.164ZM17.8297 23V0.319998H21.6377V8.356C22.1977 7.796 22.8043 7.35733 23.4577 7.04C24.1297 6.72267 24.8577 6.564 25.6417 6.564C26.295 6.564 26.8177 6.732 27.2097 7.068C27.6017 7.38533 27.891 7.81467 28.0777 8.356C28.2643 8.89733 28.3577 9.48533 28.3577 10.12V23H24.5497V10.876C24.5497 10.3907 24.475 10.0173 24.3257 9.756C24.1763 9.49467 23.887 9.364 23.4577 9.364C23.1963 9.364 22.8977 9.43867 22.5617 9.588C22.2443 9.73733 21.9363 9.93333 21.6377 10.176V23H17.8297ZM35.7648 23.252C34.5514 23.252 33.5621 23.028 32.7968 22.58C32.0314 22.1133 31.4621 21.4413 31.0888 20.564C30.7341 19.668 30.5568 18.5947 30.5568 17.344V12.472C30.5568 11.184 30.7341 10.1013 31.0888 9.224C31.4621 8.34667 32.0314 7.684 32.7968 7.236C33.5808 6.788 34.5701 6.564 35.7648 6.564C37.0528 6.564 38.0514 6.80667 38.7608 7.292C39.4888 7.77733 40.0021 8.48667 40.3008 9.42C40.6181 10.3347 40.7768 11.4547 40.7768 12.78V15.076H34.3368V18.268C34.3368 18.7907 34.3834 19.22 34.4768 19.556C34.5888 19.892 34.7568 20.1347 34.9808 20.284C35.2048 20.4333 35.4754 20.508 35.7928 20.508C36.1288 20.508 36.3994 20.4333 36.6048 20.284C36.8101 20.116 36.9594 19.8827 37.0528 19.584C37.1461 19.2667 37.1928 18.8747 37.1928 18.408V17.064H40.7488V18.156C40.7488 19.7987 40.3381 21.0587 39.5168 21.936C38.6954 22.8133 37.4448 23.252 35.7648 23.252ZM34.3368 13.2H37.1928V11.66C37.1928 11.1 37.1461 10.652 37.0528 10.316C36.9594 9.96133 36.8101 9.70933 36.6048 9.56C36.3994 9.392 36.1101 9.308 35.7368 9.308C35.4008 9.308 35.1301 9.392 34.9248 9.56C34.7194 9.728 34.5701 10.008 34.4768 10.4C34.3834 10.792 34.3368 11.352 34.3368 12.08V13.2ZM43.1648 23V6.816H46.9728V9.308C47.5328 8.356 48.0928 7.67467 48.6528 7.264C49.2128 6.83467 49.8288 6.62 50.5008 6.62C50.6128 6.62 50.7062 6.62933 50.7808 6.648C50.8742 6.648 50.9768 6.65733 51.0888 6.676V10.624C50.8648 10.5307 50.6128 10.456 50.3328 10.4C50.0715 10.3253 49.8008 10.288 49.5208 10.288C49.0168 10.288 48.5595 10.4093 48.1488 10.652C47.7382 10.8947 47.3462 11.296 46.9728 11.856V23H43.1648ZM57.5719 23.252C56.3586 23.252 55.3693 23.028 54.6039 22.58C53.8386 22.1133 53.2693 21.4413 52.8959 20.564C52.5413 19.668 52.3639 18.5947 52.3639 17.344V12.472C52.3639 11.184 52.5413 10.1013 52.8959 9.224C53.2693 8.34667 53.8386 7.684 54.6039 7.236C55.3879 6.788 56.3773 6.564 57.5719 6.564C58.8599 6.564 59.8586 6.80667 60.5679 7.292C61.2959 7.77733 61.8093 8.48667 62.1079 9.42C62.4253 10.3347 62.5839 11.4547 62.5839 12.78V15.076H56.1439V18.268C56.1439 18.7907 56.1906 19.22 56.2839 19.556C56.3959 19.892 56.5639 20.1347 56.7879 20.284C57.0119 20.4333 57.2826 20.508 57.5999 20.508C57.9359 20.508 58.2066 20.4333 58.4119 20.284C58.6173 20.116 58.7666 19.8827 58.8599 19.584C58.9533 19.2667 58.9999 18.8747 58.9999 18.408V17.064H62.5559V18.156C62.5559 19.7987 62.1453 21.0587 61.3239 21.936C60.5026 22.8133 59.2519 23.252 57.5719 23.252ZM56.1439 13.2H58.9999V11.66C58.9999 11.1 58.9533 10.652 58.8599 10.316C58.7666 9.96133 58.6173 9.70933 58.4119 9.56C58.2066 9.392 57.9173 9.308 57.5439 9.308C57.2079 9.308 56.9373 9.392 56.7319 9.56C56.5266 9.728 56.3773 10.008 56.2839 10.4C56.1906 10.792 56.1439 11.352 56.1439 12.08V13.2ZM65 23V6.816H68.808V23H65ZM65 4.24V1.076H68.808V4.24H65ZM75.9493 23.252C74.5867 23.252 73.4667 22.888 72.5893 22.16C71.712 21.432 71.0867 20.368 70.7133 18.968L73.5413 17.876C73.7653 18.7533 74.064 19.4253 74.4373 19.892C74.8107 20.3587 75.296 20.592 75.8933 20.592C76.3413 20.592 76.6773 20.48 76.9013 20.256C77.1253 20.032 77.2373 19.724 77.2373 19.332C77.2373 18.884 77.0973 18.4827 76.8173 18.128C76.556 17.7547 76.0987 17.2973 75.4453 16.756L73.4853 15.104C72.776 14.488 72.1973 13.8627 71.7493 13.228C71.32 12.5747 71.1053 11.7627 71.1053 10.792C71.1053 9.91467 71.3013 9.168 71.6933 8.552C72.104 7.91733 72.6547 7.432 73.3453 7.096C74.0547 6.74133 74.8387 6.564 75.6973 6.564C77.004 6.564 78.0493 6.956 78.8333 7.74C79.636 8.50533 80.1493 9.51333 80.3733 10.764L77.8813 11.828C77.788 11.38 77.648 10.9693 77.4613 10.596C77.2933 10.204 77.0693 9.88667 76.7893 9.644C76.5093 9.40133 76.1827 9.28 75.8093 9.28C75.4173 9.28 75.1 9.40133 74.8573 9.644C74.6333 9.88667 74.5213 10.1947 74.5213 10.568C74.5213 10.8853 74.652 11.212 74.9133 11.548C75.1933 11.884 75.5853 12.2667 76.0893 12.696L78.0773 14.488C78.5067 14.8613 78.9173 15.2627 79.3093 15.692C79.7013 16.1213 80.028 16.6067 80.2893 17.148C80.5507 17.6707 80.6813 18.2773 80.6813 18.968C80.6813 19.9013 80.4667 20.6853 80.0373 21.32C79.6267 21.9547 79.0573 22.44 78.3293 22.776C77.62 23.0933 76.8267 23.252 75.9493 23.252Z" fill="#0D47A1"/>
<path d="M16.456 42V25.816H20.124V27.216C20.684 26.6187 21.2907 26.1893 21.944 25.928C22.5973 25.648 23.26 25.508 23.932 25.508C24.5667 25.508 25.1173 25.6667 25.584 25.984C26.0693 26.3013 26.424 26.8053 26.648 27.496C27.264 26.7867 27.9173 26.2827 28.608 25.984C29.2987 25.6667 30.008 25.508 30.736 25.508C31.3147 25.508 31.828 25.6573 32.276 25.956C32.724 26.236 33.0787 26.6653 33.34 27.244C33.6013 27.804 33.732 28.5133 33.732 29.372V42H30.092V29.708C30.092 29.092 29.9893 28.672 29.784 28.448C29.5787 28.2053 29.2893 28.084 28.916 28.084C28.6173 28.084 28.2813 28.168 27.908 28.336C27.5533 28.504 27.2267 28.7373 26.928 29.036C26.928 29.092 26.928 29.148 26.928 29.204C26.928 29.2413 26.928 29.2973 26.928 29.372V42H23.316V29.708C23.316 29.092 23.204 28.672 22.98 28.448C22.7747 28.2053 22.4853 28.084 22.112 28.084C21.8133 28.084 21.4867 28.168 21.132 28.336C20.7773 28.504 20.4413 28.7373 20.124 29.036V42H16.456ZM36.3857 46.396V43.652C37.039 43.652 37.571 43.6147 37.9817 43.54C38.3923 43.4653 38.691 43.3347 38.8777 43.148C39.0643 42.9613 39.1577 42.7 39.1577 42.364C39.1577 42.1213 39.0923 41.7387 38.9617 41.216C38.8497 40.6933 38.719 40.124 38.5697 39.508L35.0137 25.816H38.7097L40.8097 36.484L42.6297 25.816H46.2977L42.5177 42.644C42.3123 43.596 41.967 44.3427 41.4817 44.884C40.9963 45.4253 40.3897 45.808 39.6617 46.032C38.9337 46.2747 38.0843 46.396 37.1137 46.396H36.3857ZM47.8348 42V19.32H51.6428V27.356C52.2028 26.796 52.8095 26.3573 53.4628 26.04C54.1348 25.7227 54.8628 25.564 55.6468 25.564C56.3001 25.564 56.8228 25.732 57.2148 26.068C57.6068 26.3853 57.8961 26.8147 58.0828 27.356C58.2695 27.8973 58.3628 28.4853 58.3628 29.12V42H54.5548V29.876C54.5548 29.3907 54.4801 29.0173 54.3308 28.756C54.1815 28.4947 53.8921 28.364 53.4628 28.364C53.2015 28.364 52.9028 28.4387 52.5668 28.588C52.2495 28.7373 51.9415 28.9333 51.6428 29.176V42H47.8348ZM65.7699 42.252C64.5939 42.252 63.6232 42.0373 62.8579 41.608C62.0926 41.16 61.5139 40.516 61.1219 39.676C60.7486 38.836 60.5619 37.8187 60.5619 36.624V31.192C60.5619 29.9973 60.7486 28.98 61.1219 28.14C61.5139 27.3 62.0926 26.6653 62.8579 26.236C63.6232 25.788 64.5939 25.564 65.7699 25.564C66.9459 25.564 67.9166 25.788 68.6819 26.236C69.4659 26.6653 70.0446 27.3 70.4179 28.14C70.8099 28.98 71.0059 29.9973 71.0059 31.192V36.624C71.0059 37.8187 70.8099 38.836 70.4179 39.676C70.0446 40.516 69.4659 41.16 68.6819 41.608C67.9166 42.0373 66.9459 42.252 65.7699 42.252ZM65.7979 39.62C66.2272 39.62 66.5446 39.4987 66.7499 39.256C66.9552 39.0133 67.0859 38.6867 67.1419 38.276C67.1979 37.8467 67.2259 37.38 67.2259 36.876V30.94C67.2259 30.436 67.1979 29.9787 67.1419 29.568C67.0859 29.1573 66.9552 28.8307 66.7499 28.588C66.5446 28.3267 66.2272 28.196 65.7979 28.196C65.3686 28.196 65.0512 28.3267 64.8459 28.588C64.6406 28.8307 64.5006 29.1573 64.4259 29.568C64.3699 29.9787 64.3419 30.436 64.3419 30.94V36.876C64.3419 37.38 64.3699 37.8467 64.4259 38.276C64.5006 38.6867 64.6406 39.0133 64.8459 39.256C65.0512 39.4987 65.3686 39.62 65.7979 39.62ZM73.3321 42V25.816H77.0001V27.216C77.5601 26.6187 78.1668 26.1893 78.8201 25.928C79.4734 25.648 80.1361 25.508 80.8081 25.508C81.4428 25.508 81.9934 25.6667 82.4601 25.984C82.9454 26.3013 83.3001 26.8053 83.5241 27.496C84.1401 26.7867 84.7934 26.2827 85.4841 25.984C86.1748 25.6667 86.8841 25.508 87.6121 25.508C88.1908 25.508 88.7041 25.6573 89.1521 25.956C89.6001 26.236 89.9548 26.6653 90.2161 27.244C90.4774 27.804 90.6081 28.5133 90.6081 29.372V42H86.9681V29.708C86.9681 29.092 86.8654 28.672 86.6601 28.448C86.4548 28.2053 86.1654 28.084 85.7921 28.084C85.4934 28.084 85.1574 28.168 84.7841 28.336C84.4294 28.504 84.1028 28.7373 83.8041 29.036C83.8041 29.092 83.8041 29.148 83.8041 29.204C83.8041 29.2413 83.8041 29.2973 83.8041 29.372V42H80.1921V29.708C80.1921 29.092 80.0801 28.672 79.8561 28.448C79.6508 28.2053 79.3614 28.084 78.9881 28.084C78.6894 28.084 78.3628 28.168 78.0081 28.336C77.6534 28.504 77.3174 28.7373 77.0001 29.036V42H73.3321ZM98.0497 42.252C96.8364 42.252 95.8471 42.028 95.0817 41.58C94.3164 41.1133 93.7471 40.4413 93.3737 39.564C93.0191 38.668 92.8417 37.5947 92.8417 36.344V31.472C92.8417 30.184 93.0191 29.1013 93.3737 28.224C93.7471 27.3467 94.3164 26.684 95.0817 26.236C95.8657 25.788 96.8551 25.564 98.0497 25.564C99.3377 25.564 100.336 25.8067 101.046 26.292C101.774 26.7773 102.287 27.4867 102.586 28.42C102.903 29.3347 103.062 30.4547 103.062 31.78V34.076H96.6217V37.268C96.6217 37.7907 96.6684 38.22 96.7617 38.556C96.8737 38.892 97.0417 39.1347 97.2657 39.284C97.4897 39.4333 97.7604 39.508 98.0777 39.508C98.4137 39.508 98.6844 39.4333 98.8897 39.284C99.0951 39.116 99.2444 38.8827 99.3377 38.584C99.4311 38.2667 99.4777 37.8747 99.4777 37.408V36.064H103.034V37.156C103.034 38.7987 102.623 40.0587 101.802 40.936C100.98 41.8133 99.7297 42.252 98.0497 42.252ZM96.6217 32.2H99.4777V30.66C99.4777 30.1 99.4311 29.652 99.3377 29.316C99.2444 28.9613 99.0951 28.7093 98.8897 28.56C98.6844 28.392 98.3951 28.308 98.0217 28.308C97.6857 28.308 97.4151 28.392 97.2097 28.56C97.0044 28.728 96.8551 29.008 96.7617 29.4C96.6684 29.792 96.6217 30.352 96.6217 31.08V32.2Z" fill="#0D47A1"/>
</svg>
