<svg width="105" height="47" viewBox="0 0 105 47" fill="none" xmlns="http://www.w3.org/2000/svg">
<path d="M3.388 23L0.784 6.816H3.248L4.928 18.744L7.084 6.816H9.38L11.536 18.688L13.216 6.816H15.68L12.992 23H10.472L8.26 11.576L6.076 23H3.388ZM17.7769 23V0.319998H20.7729V8.496C21.3143 7.97333 21.9209 7.52533 22.5929 7.152C23.2649 6.77867 24.0116 6.592 24.8329 6.592C25.4676 6.592 25.9529 6.76 26.2889 7.096C26.6436 7.432 26.8863 7.852 27.0169 8.356C27.1663 8.86 27.2409 9.37333 27.2409 9.896V23H24.2449V10.764C24.2449 10.1853 24.1609 9.73733 23.9929 9.42C23.8249 9.10267 23.4796 8.944 22.9569 8.944C22.6023 8.944 22.2289 9.04667 21.8369 9.252C21.4636 9.45733 21.1089 9.70933 20.7729 10.008V23H17.7769ZM34.3617 23.224C33.0924 23.224 32.1124 22.9813 31.4217 22.496C30.731 21.992 30.2457 21.264 29.9657 20.312C29.7044 19.3413 29.5737 18.156 29.5737 16.756V13.06C29.5737 11.6227 29.7137 10.428 29.9937 9.476C30.2737 8.524 30.759 7.80533 31.4497 7.32C32.159 6.83467 33.1297 6.592 34.3617 6.592C35.7244 6.592 36.723 6.872 37.3577 7.432C38.011 7.992 38.4404 8.804 38.6457 9.868C38.851 10.9133 38.9537 12.1733 38.9537 13.648V14.964H32.5697V18.212C32.5697 18.8653 32.6257 19.3973 32.7377 19.808C32.8684 20.2187 33.0644 20.5267 33.3257 20.732C33.6057 20.9187 33.9604 21.012 34.3897 21.012C34.8377 21.012 35.1737 20.9093 35.3977 20.704C35.6404 20.48 35.799 20.172 35.8737 19.78C35.967 19.3693 36.0137 18.8933 36.0137 18.352V17.372H38.9257V17.988C38.9257 19.612 38.5804 20.8907 37.8897 21.824C37.199 22.7573 36.023 23.224 34.3617 23.224ZM32.5697 13.34H36.0137V11.884C36.0137 11.212 35.9764 10.652 35.9017 10.204C35.827 9.73733 35.6684 9.392 35.4257 9.168C35.2017 8.92533 34.8377 8.804 34.3337 8.804C33.8484 8.804 33.475 8.916 33.2137 9.14C32.971 9.364 32.803 9.74667 32.7097 10.288C32.6164 10.8107 32.5697 11.5387 32.5697 12.472V13.34ZM41.4708 23V6.816H44.4668V9.112C45.0642 8.12267 45.6615 7.46 46.2588 7.124C46.8562 6.788 47.4535 6.62 48.0508 6.62C48.1255 6.62 48.1908 6.62 48.2468 6.62C48.3215 6.62 48.4148 6.62933 48.5268 6.648V9.952C48.3028 9.85867 48.0415 9.784 47.7428 9.728C47.4628 9.65333 47.1735 9.616 46.8748 9.616C46.4082 9.616 45.9788 9.728 45.5868 9.952C45.2135 10.1573 44.8402 10.568 44.4668 11.184V23H41.4708ZM54.5829 23.224C53.3136 23.224 52.3336 22.9813 51.6429 22.496C50.9523 21.992 50.4669 21.264 50.1869 20.312C49.9256 19.3413 49.7949 18.156 49.7949 16.756V13.06C49.7949 11.6227 49.9349 10.428 50.2149 9.476C50.4949 8.524 50.9803 7.80533 51.6709 7.32C52.3803 6.83467 53.3509 6.592 54.5829 6.592C55.9456 6.592 56.9443 6.872 57.5789 7.432C58.2323 7.992 58.6616 8.804 58.8669 9.868C59.0723 10.9133 59.1749 12.1733 59.1749 13.648V14.964H52.7909V18.212C52.7909 18.8653 52.8469 19.3973 52.9589 19.808C53.0896 20.2187 53.2856 20.5267 53.5469 20.732C53.8269 20.9187 54.1816 21.012 54.6109 21.012C55.0589 21.012 55.3949 20.9093 55.6189 20.704C55.8616 20.48 56.0203 20.172 56.0949 19.78C56.1883 19.3693 56.2349 18.8933 56.2349 18.352V17.372H59.1469V17.988C59.1469 19.612 58.8016 20.8907 58.1109 21.824C57.4203 22.7573 56.2443 23.224 54.5829 23.224ZM52.7909 13.34H56.2349V11.884C56.2349 11.212 56.1976 10.652 56.1229 10.204C56.0483 9.73733 55.8896 9.392 55.6469 9.168C55.4229 8.92533 55.0589 8.804 54.5549 8.804C54.0696 8.804 53.6963 8.916 53.4349 9.14C53.1923 9.364 53.0243 9.74667 52.9309 10.288C52.8376 10.8107 52.7909 11.5387 52.7909 12.472V13.34ZM61.8041 23V6.816H64.8001V23H61.8041ZM61.8041 4.408V1.272H64.8001V4.408H61.8041ZM71.4785 23.224C70.1532 23.224 69.0892 22.8133 68.2865 21.992C67.4839 21.152 67.0265 20.0507 66.9145 18.688L69.4065 17.932C69.5559 18.9587 69.8079 19.7333 70.1625 20.256C70.5172 20.76 71.0399 21.012 71.7305 21.012C72.2719 21.012 72.6825 20.8627 72.9625 20.564C73.2425 20.2467 73.3825 19.8267 73.3825 19.304C73.3825 18.8373 73.2799 18.4173 73.0745 18.044C72.8692 17.6707 72.5332 17.288 72.0665 16.896L69.2945 14.516C68.7345 14.0307 68.2585 13.4893 67.8665 12.892C67.4932 12.2947 67.3065 11.52 67.3065 10.568C67.3065 9.70933 67.4745 8.99067 67.8105 8.412C68.1652 7.81467 68.6505 7.36667 69.2665 7.068C69.9012 6.75067 70.6385 6.592 71.4785 6.592C72.7665 6.592 73.7465 7.012 74.4185 7.852C75.1092 8.67333 75.5012 9.672 75.5945 10.848L73.5785 11.604C73.5039 11.044 73.3919 10.5587 73.2425 10.148C73.0932 9.71867 72.8879 9.392 72.6265 9.168C72.3652 8.92533 72.0199 8.804 71.5905 8.804C71.1052 8.804 70.7132 8.972 70.4145 9.308C70.1345 9.62533 69.9945 10.008 69.9945 10.456C69.9945 10.736 70.0505 11.016 70.1625 11.296C70.2932 11.5573 70.5079 11.8187 70.8065 12.08L73.6625 14.712C74.0545 15.0667 74.4185 15.4493 74.7545 15.86C75.1092 16.2707 75.3985 16.7373 75.6225 17.26C75.8465 17.7827 75.9585 18.3893 75.9585 19.08C75.9585 19.9947 75.7719 20.76 75.3985 21.376C75.0252 21.992 74.5025 22.4587 73.8305 22.776C73.1585 23.0747 72.3745 23.224 71.4785 23.224Z" fill="#0D47A1"/>
<path d="M16.512 42V25.816H19.284V27.356C19.8253 26.74 20.4227 26.2827 21.076 25.984C21.7293 25.6853 22.4013 25.536 23.092 25.536C23.6893 25.536 24.2213 25.6853 24.688 25.984C25.1733 26.2827 25.5187 26.8147 25.724 27.58C26.3027 26.8707 26.928 26.3573 27.6 26.04C28.2907 25.704 29.0093 25.536 29.756 25.536C30.2787 25.536 30.7547 25.6667 31.184 25.928C31.6133 26.1707 31.9587 26.572 32.22 27.132C32.4813 27.6733 32.612 28.392 32.612 29.288V42H29.868V29.484C29.868 28.7 29.7373 28.1773 29.476 27.916C29.2333 27.636 28.8973 27.496 28.468 27.496C28.0573 27.496 27.628 27.6173 27.18 27.86C26.732 28.084 26.3213 28.4013 25.948 28.812C25.948 28.8867 25.948 28.9613 25.948 29.036C25.948 29.1107 25.948 29.1947 25.948 29.288V42H23.204V29.484C23.204 28.7 23.0733 28.1773 22.812 27.916C22.5693 27.636 22.2333 27.496 21.804 27.496C21.3933 27.496 20.964 27.6173 20.516 27.86C20.0867 28.084 19.676 28.4013 19.284 28.812V42H16.512ZM35.0112 46.06V43.764C35.7392 43.764 36.3179 43.7267 36.7472 43.652C37.1766 43.596 37.4846 43.4747 37.6712 43.288C37.8579 43.12 37.9512 42.8773 37.9512 42.56C37.9512 42.392 37.8859 42.0187 37.7552 41.44C37.6246 40.8613 37.4846 40.2453 37.3352 39.592L34.0872 25.816H37.1112L39.2952 37.912L41.3952 25.816H44.4192L40.5552 42.896C40.3872 43.68 40.0792 44.296 39.6312 44.744C39.1832 45.2107 38.6046 45.5467 37.8952 45.752C37.2046 45.9573 36.3646 46.06 35.3752 46.06H35.0112ZM46.0321 42V19.32H49.0281V27.496C49.5694 26.9733 50.1761 26.5253 50.8481 26.152C51.5201 25.7787 52.2668 25.592 53.0881 25.592C53.7228 25.592 54.2081 25.76 54.5441 26.096C54.8988 26.432 55.1414 26.852 55.2721 27.356C55.4214 27.86 55.4961 28.3733 55.4961 28.896V42H52.5001V29.764C52.5001 29.1853 52.4161 28.7373 52.2481 28.42C52.0801 28.1027 51.7348 27.944 51.2121 27.944C50.8574 27.944 50.4841 28.0467 50.0921 28.252C49.7188 28.4573 49.3641 28.7093 49.0281 29.008V42H46.0321ZM62.5888 42.224C61.3942 42.224 60.4515 41.9813 59.7608 41.496C59.0702 41.0107 58.5755 40.32 58.2768 39.424C57.9968 38.528 57.8568 37.4733 57.8568 36.26V31.556C57.8568 30.3427 57.9968 29.288 58.2768 28.392C58.5755 27.496 59.0702 26.8053 59.7608 26.32C60.4515 25.8347 61.3942 25.592 62.5888 25.592C63.7835 25.592 64.7168 25.8347 65.3888 26.32C66.0795 26.8053 66.5648 27.496 66.8448 28.392C67.1435 29.288 67.2928 30.3427 67.2928 31.556V36.26C67.2928 37.4733 67.1435 38.528 66.8448 39.424C66.5648 40.32 66.0795 41.0107 65.3888 41.496C64.7168 41.9813 63.7835 42.224 62.5888 42.224ZM62.5888 40.012C63.1675 40.012 63.5688 39.844 63.7928 39.508C64.0355 39.172 64.1755 38.7333 64.2128 38.192C64.2688 37.632 64.2968 37.0533 64.2968 36.456V31.388C64.2968 30.772 64.2688 30.1933 64.2128 29.652C64.1755 29.1107 64.0355 28.672 63.7928 28.336C63.5688 27.9813 63.1675 27.804 62.5888 27.804C62.0102 27.804 61.5995 27.9813 61.3568 28.336C61.1142 28.672 60.9648 29.1107 60.9088 29.652C60.8715 30.1933 60.8528 30.772 60.8528 31.388V36.456C60.8528 37.0533 60.8715 37.632 60.9088 38.192C60.9648 38.7333 61.1142 39.172 61.3568 39.508C61.5995 39.844 62.0102 40.012 62.5888 40.012ZM69.7514 42V25.816H72.5234V27.356C73.0647 26.74 73.662 26.2827 74.3154 25.984C74.9687 25.6853 75.6407 25.536 76.3314 25.536C76.9287 25.536 77.4607 25.6853 77.9274 25.984C78.4127 26.2827 78.758 26.8147 78.9634 27.58C79.542 26.8707 80.1674 26.3573 80.8394 26.04C81.53 25.704 82.2487 25.536 82.9954 25.536C83.518 25.536 83.994 25.6667 84.4234 25.928C84.8527 26.1707 85.198 26.572 85.4594 27.132C85.7207 27.6733 85.8514 28.392 85.8514 29.288V42H83.1074V29.484C83.1074 28.7 82.9767 28.1773 82.7154 27.916C82.4727 27.636 82.1367 27.496 81.7074 27.496C81.2967 27.496 80.8674 27.6173 80.4194 27.86C79.9714 28.084 79.5607 28.4013 79.1874 28.812C79.1874 28.8867 79.1874 28.9613 79.1874 29.036C79.1874 29.1107 79.1874 29.1947 79.1874 29.288V42H76.4434V29.484C76.4434 28.7 76.3127 28.1773 76.0514 27.916C75.8087 27.636 75.4727 27.496 75.0434 27.496C74.6327 27.496 74.2034 27.6173 73.7554 27.86C73.326 28.084 72.9154 28.4013 72.5234 28.812V42H69.7514ZM92.9826 42.224C91.7133 42.224 90.7333 41.9813 90.0426 41.496C89.352 40.992 88.8666 40.264 88.5866 39.312C88.3253 38.3413 88.1946 37.156 88.1946 35.756V32.06C88.1946 30.6227 88.3346 29.428 88.6146 28.476C88.8946 27.524 89.38 26.8053 90.0706 26.32C90.78 25.8347 91.7506 25.592 92.9826 25.592C94.3453 25.592 95.344 25.872 95.9786 26.432C96.632 26.992 97.0613 27.804 97.2666 28.868C97.472 29.9133 97.5746 31.1733 97.5746 32.648V33.964H91.1906V37.212C91.1906 37.8653 91.2466 38.3973 91.3586 38.808C91.4893 39.2187 91.6853 39.5267 91.9466 39.732C92.2266 39.9187 92.5813 40.012 93.0106 40.012C93.4586 40.012 93.7946 39.9093 94.0186 39.704C94.2613 39.48 94.42 39.172 94.4946 38.78C94.588 38.3693 94.6346 37.8933 94.6346 37.352V36.372H97.5466V36.988C97.5466 38.612 97.2013 39.8907 96.5106 40.824C95.82 41.7573 94.644 42.224 92.9826 42.224ZM91.1906 32.34H94.6346V30.884C94.6346 30.212 94.5973 29.652 94.5226 29.204C94.448 28.7373 94.2893 28.392 94.0466 28.168C93.8226 27.9253 93.4586 27.804 92.9546 27.804C92.4693 27.804 92.096 27.916 91.8346 28.14C91.592 28.364 91.424 28.7467 91.3306 29.288C91.2373 29.8107 91.1906 30.5387 91.1906 31.472V32.34Z" fill="#0D47A1"/>
</svg>
