<svg width="192" height="192" viewBox="0 0 192 192" fill="none" xmlns="http://www.w3.org/2000/svg">
<path d="M45.888 121L38.4861 97.2523H37.8693L30.3646 121H19.3646L5.48613 71.4486H15.7665L16.4861 77.4112L25.2244 110.206H26.0469L34.374 83.4766L30.7758 71.4486H41.4674L42.5983 78.5421L51.5422 110.206H52.2618L62.2338 78.2336L63.4674 71.4486H73.2338L56.888 121H45.888ZM89.9974 121H79.5114L80.1283 106.196L79.5114 71.4486H90.203L89.5862 105.271L89.9974 121ZM127.467 82.9626C123.766 80.2897 120.271 78.9533 116.981 78.9533C114.925 78.9533 113.28 79.5016 112.047 80.5981C110.813 81.6947 110.196 82.9969 110.196 84.5047C110.196 85.9439 110.847 87.1776 112.149 88.2056C113.52 89.2336 115.645 90.433 118.523 91.8037C121.402 93.1059 123.732 94.3053 125.514 95.4019C129.763 98.0062 131.888 101.673 131.888 106.402C131.888 109.212 131.1 111.782 129.523 114.112C128.015 116.442 125.857 118.293 123.047 119.664C120.237 121.034 116.707 121.72 112.458 121.72C108.209 121.72 103.582 120.657 98.5793 118.533L100.121 108.869L101.252 108.15C103.308 109.931 105.536 111.302 107.934 112.262C110.402 113.221 112.663 113.701 114.72 113.701C116.844 113.701 118.523 113.153 119.757 112.056C120.991 110.96 121.607 109.623 121.607 108.047C121.607 106.47 120.922 105.168 119.551 104.14C118.181 103.112 116.022 101.947 113.075 100.645C110.196 99.2741 107.9 98.0405 106.187 96.9439C102.006 94.4081 99.9158 90.7757 99.9158 86.0467C99.9158 83.1682 100.67 80.5981 102.177 78.3364C103.754 76.0062 105.913 74.1558 108.654 72.785C111.464 71.4143 114.788 70.7632 118.626 70.8318C122.464 70.9003 126.473 71.757 130.654 73.4019L129.009 82.3458L127.467 82.9626ZM181.85 121H171.364L171.98 106.196L171.878 100.439L160.672 100.234L150.597 100.439L150.494 105.271L150.906 121H140.42L141.036 106.196L140.42 71.4486H151.111L150.7 91.8037L161.289 92.1121L171.775 91.8037L171.364 71.4486H182.055L181.438 105.271L181.85 121Z" fill="#0D47A1"/>
<path d="M68.4533 134.131H68.5841L69.5561 130.579L69.7804 129.477H71.5748L71.7243 130.467L72.5467 134.112H72.6589L73.6122 130.579L73.8365 129.477H75.4066L73.3692 136H71.6309L70.6215 131.813H70.4907L69.3505 136H67.5L65.8178 129.533L67.5 129.439L67.6496 130.467L68.4533 134.131ZM79.3217 130.916C78.9728 130.916 78.5678 131.103 78.1068 131.477L78.0694 133.14L78.1628 136H76.3124L76.4058 133.29L76.3311 126.318L78.1815 126.168L78.1255 130.411H78.2002C78.7111 129.938 79.2656 129.601 79.8638 129.402C80.5741 129.402 81.1161 129.564 81.4899 129.888C81.8638 130.212 82.0445 130.673 82.032 131.271L81.9946 133.14L82.0694 136H80.2002L80.3124 131.944C80.3373 131.259 80.0071 130.916 79.3217 130.916ZM84.9492 132.991C85.024 134.174 85.5972 134.766 86.6688 134.766C87.2794 134.766 87.9087 134.592 88.5567 134.243L88.7062 134.355L88.4632 135.72C87.8152 135.994 87.161 136.137 86.5006 136.15C85.4663 136.15 84.6626 135.85 84.0894 135.252C83.5162 134.654 83.2296 133.832 83.2296 132.785C83.2296 131.726 83.5162 130.897 84.0894 130.299C84.6751 129.688 85.4165 129.383 86.3137 129.383C87.2109 129.383 87.8775 129.614 88.3137 130.075C88.7623 130.523 88.9866 131.146 88.9866 131.944C88.9866 132.193 88.9679 132.449 88.9305 132.71L88.6501 132.972L84.9492 132.991ZM86.3698 130.598C86.0084 130.598 85.7031 130.717 85.4539 130.953C85.2171 131.19 85.0614 131.526 84.9866 131.963L87.3417 131.888L87.3791 131.738C87.3666 130.978 87.0302 130.598 86.3698 130.598ZM93.8303 129.477C93.9175 129.489 94.0359 129.502 94.1854 129.514V131.215L93.9985 131.29C93.8365 131.227 93.6621 131.196 93.4752 131.196C92.9393 131.196 92.4471 131.539 91.9985 132.224V133.14L92.1107 136H90.2415L90.335 133.308L90.2602 129.607L92.0359 129.458L92.0172 130.748H92.1294C92.578 129.913 93.1449 129.489 93.8303 129.477ZM96.375 132.991C96.4497 134.174 97.023 134.766 98.0946 134.766C98.7052 134.766 99.3345 134.592 99.9825 134.243L100.132 134.355L99.889 135.72C99.241 135.994 98.5868 136.137 97.9264 136.15C96.8921 136.15 96.0884 135.85 95.5152 135.252C94.942 134.654 94.6554 133.832 94.6554 132.785C94.6554 131.726 94.942 130.897 95.5152 130.299C96.1008 129.688 96.8423 129.383 97.7395 129.383C98.6367 129.383 99.3033 129.614 99.7395 130.075C100.188 130.523 100.412 131.146 100.412 131.944C100.412 132.193 100.394 132.449 100.356 132.71L100.076 132.972L96.375 132.991ZM97.7955 130.598C97.4342 130.598 97.1289 130.717 96.8797 130.953C96.6429 131.19 96.4871 131.526 96.4124 131.963L98.7675 131.888L98.8049 131.738C98.7924 130.978 98.456 130.598 97.7955 130.598ZM104.748 126.299C105.047 126.299 105.277 126.386 105.439 126.561C105.601 126.723 105.682 126.96 105.682 127.271C105.682 127.57 105.595 127.813 105.421 128C105.246 128.187 105.003 128.28 104.692 128.28C104.393 128.28 104.156 128.199 103.981 128.037C103.819 127.863 103.738 127.626 103.738 127.327C103.738 127.028 103.832 126.785 104.019 126.598C104.206 126.399 104.449 126.299 104.748 126.299ZM105.626 136H103.757L103.851 133.308L103.776 129.607L105.645 129.458L105.514 133.14L105.626 136ZM109.367 129.383C110.077 129.371 110.713 129.477 111.274 129.701L111.031 131.065L110.806 131.14C110.246 130.779 109.735 130.598 109.274 130.598C109.049 130.598 108.869 130.66 108.732 130.785C108.607 130.897 108.545 131.04 108.545 131.215C108.545 131.389 108.632 131.539 108.806 131.664C108.981 131.788 109.255 131.925 109.629 132.075C110.003 132.224 110.308 132.374 110.545 132.523C110.794 132.66 111.006 132.854 111.18 133.103C111.355 133.34 111.442 133.645 111.442 134.019C111.442 134.393 111.348 134.741 111.161 135.065C110.725 135.788 109.946 136.15 108.825 136.15C108.152 136.15 107.454 136.006 106.732 135.72L106.956 134.262L107.124 134.15C107.411 134.399 107.735 134.598 108.096 134.748C108.457 134.885 108.769 134.953 109.031 134.953C109.292 134.953 109.492 134.891 109.629 134.766C109.766 134.642 109.834 134.492 109.834 134.318C109.834 134.131 109.747 133.975 109.573 133.85C109.398 133.713 109.124 133.57 108.75 133.421C108.376 133.259 108.071 133.109 107.834 132.972C107.236 132.636 106.937 132.143 106.937 131.495C106.937 130.847 107.161 130.336 107.61 129.963C108.071 129.576 108.657 129.383 109.367 129.383ZM116.828 129.383C117.538 129.371 118.174 129.477 118.735 129.701L118.492 131.065L118.267 131.14C117.707 130.779 117.196 130.598 116.735 130.598C116.51 130.598 116.33 130.66 116.192 130.785C116.068 130.897 116.006 131.04 116.006 131.215C116.006 131.389 116.093 131.539 116.267 131.664C116.442 131.788 116.716 131.925 117.09 132.075C117.464 132.224 117.769 132.374 118.006 132.523C118.255 132.66 118.467 132.854 118.641 133.103C118.816 133.34 118.903 133.645 118.903 134.019C118.903 134.393 118.809 134.741 118.622 135.065C118.186 135.788 117.407 136.15 116.286 136.15C115.613 136.15 114.915 136.006 114.192 135.72L114.417 134.262L114.585 134.15C114.872 134.399 115.196 134.598 115.557 134.748C115.918 134.885 116.23 134.953 116.492 134.953C116.753 134.953 116.953 134.891 117.09 134.766C117.227 134.642 117.295 134.492 117.295 134.318C117.295 134.131 117.208 133.975 117.034 133.85C116.859 133.713 116.585 133.57 116.211 133.421C115.837 133.259 115.532 133.109 115.295 132.972C114.697 132.636 114.398 132.143 114.398 131.495C114.398 130.847 114.622 130.336 115.071 129.963C115.532 129.576 116.118 129.383 116.828 129.383ZM122.517 129.364C123.352 129.364 123.975 129.526 124.386 129.85C124.797 130.174 125.003 130.623 125.003 131.196C125.003 131.358 124.972 131.888 124.909 132.785C124.909 132.785 124.891 133.296 124.853 134.318C124.853 134.48 124.872 134.592 124.909 134.654C124.947 134.704 125.022 134.729 125.134 134.729C125.246 134.729 125.377 134.71 125.526 134.673L125.676 134.785L125.489 135.757C125.19 135.944 124.853 136.062 124.479 136.112C123.881 136.062 123.52 135.72 123.395 135.084H123.302C122.828 135.583 122.349 135.931 121.863 136.131C121.19 136.118 120.66 135.938 120.274 135.589C119.888 135.24 119.694 134.773 119.694 134.187C119.694 133.277 120.174 132.729 121.134 132.542L123.283 132.15V131.57C123.283 130.96 122.997 130.654 122.423 130.654C121.85 130.654 121.177 130.922 120.405 131.458L120.255 131.383L120.05 130.15C120.872 129.626 121.694 129.364 122.517 129.364ZM121.788 133.402C121.501 133.464 121.358 133.639 121.358 133.925C121.358 134.486 121.601 134.766 122.087 134.766C122.448 134.766 122.835 134.548 123.246 134.112L123.283 133.065L121.788 133.402ZM130.245 126.15C130.631 126.137 131.036 126.174 131.46 126.262L131.348 127.645L131.217 127.738C130.781 127.551 130.394 127.458 130.058 127.458C129.485 127.458 129.192 127.788 129.18 128.449L129.161 129.551H130.75L130.806 129.645L130.731 130.654H129.142L129.086 133.14L129.198 136H127.329L127.441 133.29L127.423 130.654H126.432L126.376 130.579L126.451 129.551H127.404L127.385 128.785C127.385 127.95 127.634 127.302 128.133 126.841C128.631 126.38 129.335 126.15 130.245 126.15ZM132.723 132.991C132.797 134.174 133.371 134.766 134.442 134.766C135.053 134.766 135.682 134.592 136.33 134.243L136.48 134.355L136.237 135.72C135.589 135.994 134.934 136.137 134.274 136.15C133.24 136.15 132.436 135.85 131.863 135.252C131.29 134.654 131.003 133.832 131.003 132.785C131.003 131.726 131.29 130.897 131.863 130.299C132.448 129.688 133.19 129.383 134.087 129.383C134.984 129.383 135.651 129.614 136.087 130.075C136.536 130.523 136.76 131.146 136.76 131.944C136.76 132.193 136.741 132.449 136.704 132.71L136.424 132.972L132.723 132.991ZM134.143 130.598C133.782 130.598 133.477 130.717 133.227 130.953C132.991 131.19 132.835 131.526 132.76 131.963L135.115 131.888L135.153 131.738C135.14 130.978 134.804 130.598 134.143 130.598ZM140.688 134.617C140.974 134.617 141.28 134.542 141.604 134.393L141.753 134.542L141.566 135.626C141.105 135.875 140.626 136.025 140.127 136.075C138.869 135.95 138.233 135.34 138.221 134.243L138.295 133.065V130.654H137.417L137.342 130.579L137.436 129.551H138.258V128.467L139.959 127.925L140.09 128.037L140.034 129.551H141.716L141.772 129.645L141.697 130.654H140.015L139.94 133.794C139.94 134.093 139.99 134.305 140.09 134.43C140.202 134.555 140.401 134.617 140.688 134.617ZM145.04 134.112H145.133L146.273 130.654L146.516 129.477H148.124L146.012 135.551C145.713 136.436 145.301 137.109 144.778 137.57C144.255 138.044 143.513 138.417 142.554 138.692L142.423 138.673C142.086 138.374 141.812 138 141.6 137.551L141.657 137.364C142.741 137.178 143.607 136.723 144.255 136L141.862 129.533L143.657 129.439L143.862 130.486L145.04 134.112ZM154.146 130.916C153.797 130.916 153.392 131.103 152.931 131.477L152.894 133.14L152.987 136H151.137L151.23 133.29L151.155 126.318L153.006 126.168L152.95 130.411H153.024C153.535 129.938 154.09 129.601 154.688 129.402C155.398 129.402 155.94 129.564 156.314 129.888C156.688 130.212 156.869 130.673 156.856 131.271L156.819 133.14L156.894 136H155.024L155.137 131.944C155.162 131.259 154.831 130.916 154.146 130.916ZM161.138 129.364C162.135 129.364 162.882 129.645 163.381 130.206C163.879 130.766 164.129 131.595 164.129 132.692C164.129 133.788 163.854 134.642 163.306 135.252C162.77 135.85 162.01 136.15 161.026 136.15C160.054 136.15 159.312 135.869 158.801 135.308C158.303 134.735 158.054 133.9 158.054 132.804C158.054 131.707 158.322 130.86 158.858 130.262C159.393 129.664 160.153 129.364 161.138 129.364ZM161.082 130.617C160.633 130.617 160.309 130.773 160.11 131.084C159.91 131.383 159.811 131.913 159.811 132.673C159.811 133.433 159.91 133.994 160.11 134.355C160.309 134.704 160.639 134.879 161.101 134.879C161.562 134.879 161.892 134.735 162.091 134.449C162.291 134.162 162.39 133.639 162.39 132.879C162.39 132.118 162.284 131.551 162.072 131.178C161.861 130.804 161.53 130.617 161.082 130.617ZM173.285 131.944C173.297 131.259 173.004 130.916 172.406 130.916C171.983 130.916 171.54 131.103 171.079 131.477L171.06 133.14L171.117 136H169.266L169.378 131.944C169.378 131.259 169.079 130.916 168.481 130.916C168.057 130.916 167.609 131.103 167.135 131.477V133.14L167.229 136H165.378L165.472 133.308L165.397 129.607L167.154 129.458V130.411H167.247C167.783 129.938 168.344 129.601 168.93 129.402C169.989 129.402 170.662 129.751 170.948 130.449H171.004C171.553 129.95 172.163 129.601 172.836 129.402C173.546 129.402 174.082 129.564 174.444 129.888C174.817 130.212 174.998 130.673 174.986 131.271L174.948 133.14L175.023 136H173.173L173.285 131.944ZM177.918 132.991C177.993 134.174 178.566 134.766 179.638 134.766C180.248 134.766 180.877 134.592 181.525 134.243L181.675 134.355L181.432 135.72C180.784 135.994 180.13 136.137 179.469 136.15C178.435 136.15 177.631 135.85 177.058 135.252C176.485 134.654 176.198 133.832 176.198 132.785C176.198 131.726 176.485 130.897 177.058 130.299C177.644 129.688 178.385 129.383 179.282 129.383C180.18 129.383 180.846 129.614 181.282 130.075C181.731 130.523 181.955 131.146 181.955 131.944C181.955 132.193 181.937 132.449 181.899 132.71L181.619 132.972L177.918 132.991ZM179.339 130.598C178.977 130.598 178.672 130.717 178.423 130.953C178.186 131.19 178.03 131.526 177.955 131.963L180.31 131.888L180.348 131.738C180.335 130.978 179.999 130.598 179.339 130.598Z" fill="#0D47A1"/>
</svg>
