<svg width="137" height="178" viewBox="0 0 137 178" fill="none" xmlns="http://www.w3.org/2000/svg">
<g filter="url(#filter0_d_78_484)">
<path d="M50.9601 98.6763L67.4449 108.194L33.9695 166.175L24.3614 144.747L50.9601 98.6763Z" fill="#418ED6"/>
<path d="M50.9601 98.6763L34.4753 89.1588L0.999947 147.14L24.3614 144.747L50.9601 98.6763Z" fill="#2B63A6"/>
<path d="M74.4783 98.6763L57.9935 108.194L91.4688 166.175L101.077 144.747L74.4783 98.6763Z" fill="#2B63A6"/>
<path d="M74.4783 98.6763L90.9631 89.1588L124.438 147.14L101.077 144.747L74.4783 98.6763Z" fill="#418ED6"/>
<circle cx="62.6925" cy="58.7539" r="57.2539" fill="#E3E3E3" stroke="#404040"/>
<circle cx="62.6926" cy="58.7537" r="44.3016" fill="#595959"/>
<mask id="mask0_78_484" style="mask-type:alpha" maskUnits="userSpaceOnUse" x="20" y="19" width="90" height="89">
<circle cx="65.0574" cy="63.4833" r="44.4047" fill="#C28B37"/>
</mask>
<g mask="url(#mask0_78_484)">
<circle cx="62.6926" cy="58.7538" r="44.4047" fill="url(#paint0_linear_78_484)"/>
</g>
<path d="M62.9321 27.8623L72.5108 47.0197L91.6682 49.4144L78.5135 64.1656L82.0895 85.3346L62.9321 75.7559L43.7746 85.3346L47.3826 64.1656L34.1959 49.4144L53.3534 47.0197L62.9321 27.8623Z" fill="url(#paint1_linear_78_484)"/>
</g>
<defs>
<filter id="filter0_d_78_484" x="0.216502" y="0.216502" width="135.974" height="177.711" filterUnits="userSpaceOnUse" color-interpolation-filters="sRGB">
<feFlood flood-opacity="0" result="BackgroundImageFix"/>
<feColorMatrix in="SourceAlpha" type="matrix" values="0 0 0 0 0 0 0 0 0 0 0 0 0 0 0 0 0 0 127 0" result="hardAlpha"/>
<feOffset dx="5.48449" dy="5.48449"/>
<feGaussianBlur stdDeviation="3.13399"/>
<feComposite in2="hardAlpha" operator="out"/>
<feColorMatrix type="matrix" values="0 0 0 0 0 0 0 0 0 0 0 0 0 0 0 0 0 0 0.3 0"/>
<feBlend mode="normal" in2="BackgroundImageFix" result="effect1_dropShadow_78_484"/>
<feBlend mode="normal" in="SourceGraphic" in2="effect1_dropShadow_78_484" result="shape"/>
</filter>
<linearGradient id="paint0_linear_78_484" x1="62.6926" y1="14.3491" x2="62.6926" y2="103.158" gradientUnits="userSpaceOnUse">
<stop stop-color="#9CA1A3"/>
<stop offset="1" stop-color="#9CA1A3" stop-opacity="0"/>
</linearGradient>
<linearGradient id="paint1_linear_78_484" x1="62.9321" y1="27.8623" x2="62.9321" y2="85.3346" gradientUnits="userSpaceOnUse">
<stop stop-color="#F1F5F5"/>
<stop offset="0.0001" stop-color="white"/>
<stop offset="1" stop-color="#F1F5F5"/>
</linearGradient>
</defs>
</svg>
